<svg width="182" height="32" viewBox="0 0 182 32" fill="none" xmlns="http://www.w3.org/2000/svg">
<path d="M32.92 31H26.16L20.56 11.84H20.44L14.84 31H8.04L0 2.68H7.36L11.84 21.52H11.96L17 2.68H24.12L29.2 21.52H29.32L33.88 2.68H41L32.92 31ZM54.2503 18.76C54.2503 17.72 53.917 16.8267 53.2503 16.08C52.6103 15.3333 51.637 14.96 50.3303 14.96C49.6903 14.96 49.1036 15.0667 48.5703 15.28C48.037 15.4667 47.5703 15.7333 47.1703 16.08C46.7703 16.4267 46.4503 16.84 46.2103 17.32C45.9703 17.7733 45.837 18.2533 45.8103 18.76H54.2503ZM60.2903 21.28C60.2903 21.5467 60.2903 21.8133 60.2903 22.08C60.2903 22.3467 60.277 22.6 60.2503 22.84H45.8103C45.8636 23.4 46.0236 23.9067 46.2903 24.36C46.5836 24.8133 46.9436 25.2133 47.3703 25.56C47.8236 25.88 48.317 26.1333 48.8503 26.32C49.4103 26.5067 49.9836 26.6 50.5703 26.6C51.6103 26.6 52.4903 26.4133 53.2103 26.04C53.9303 25.64 54.517 25.1333 54.9703 24.52L59.5303 27.4C58.597 28.76 57.357 29.8133 55.8103 30.56C54.2903 31.28 52.517 31.64 50.4903 31.64C48.997 31.64 47.5836 31.4133 46.2503 30.96C44.917 30.48 43.7436 29.8 42.7303 28.92C41.7436 28.0133 40.957 26.9067 40.3703 25.6C39.8103 24.2933 39.5303 22.8 39.5303 21.12C39.5303 19.4933 39.8103 18.0267 40.3703 16.72C40.9303 15.3867 41.6903 14.2667 42.6503 13.36C43.6103 12.4267 44.7436 11.7067 46.0503 11.2C47.357 10.6933 48.7703 10.44 50.2903 10.44C51.757 10.44 53.1036 10.6933 54.3303 11.2C55.557 11.68 56.6103 12.3867 57.4903 13.32C58.3703 14.2533 59.0503 15.3867 59.5303 16.72C60.037 18.0533 60.2903 19.5733 60.2903 21.28ZM62.8384 31V0.759998H69.4784V31H62.8384ZM86.7925 17.52C86.4192 17.04 85.9125 16.6533 85.2725 16.36C84.6325 16.0667 83.9792 15.92 83.3125 15.92C82.6192 15.92 81.9925 16.0667 81.4325 16.36C80.8725 16.6267 80.3925 17 79.9925 17.48C79.5925 17.9333 79.2725 18.4667 79.0325 19.08C78.8192 19.6933 78.7125 20.3467 78.7125 21.04C78.7125 21.7333 78.8192 22.3867 79.0325 23C79.2458 23.6133 79.5525 24.16 79.9525 24.64C80.3792 25.0933 80.8725 25.4533 81.4325 25.72C82.0192 25.9867 82.6725 26.12 83.3925 26.12C84.0592 26.12 84.7125 26 85.3525 25.76C86.0192 25.4933 86.5525 25.12 86.9525 24.64L90.5925 29.08C89.7658 29.88 88.6992 30.5067 87.3925 30.96C86.0858 31.4133 84.6992 31.64 83.2325 31.64C81.6592 31.64 80.1925 31.4 78.8325 30.92C77.4725 30.44 76.2858 29.7467 75.2725 28.84C74.2858 27.9067 73.4992 26.7867 72.9125 25.48C72.3525 24.1733 72.0725 22.6933 72.0725 21.04C72.0725 19.4133 72.3525 17.9467 72.9125 16.64C73.4992 15.3333 74.2858 14.2267 75.2725 13.32C76.2858 12.3867 77.4725 11.68 78.8325 11.2C80.1925 10.6933 81.6458 10.44 83.1925 10.44C83.9125 10.44 84.6192 10.5067 85.3125 10.64C86.0325 10.7733 86.7125 10.96 87.3525 11.2C88.0192 11.4133 88.6192 11.6933 89.1525 12.04C89.7125 12.36 90.1925 12.72 90.5925 13.12L86.7925 17.52ZM112.71 20.96C112.71 22.5867 112.416 24.0667 111.83 25.4C111.243 26.7067 110.443 27.8267 109.43 28.76C108.416 29.6667 107.243 30.3733 105.91 30.88C104.576 31.3867 103.15 31.64 101.63 31.64C100.136 31.64 98.7097 31.3867 97.3497 30.88C96.0164 30.3733 94.843 29.6667 93.8297 28.76C92.843 27.8267 92.0564 26.7067 91.4697 25.4C90.883 24.0667 90.5897 22.5867 90.5897 20.96C90.5897 19.3333 90.883 17.8667 91.4697 16.56C92.0564 15.2533 92.843 14.1467 93.8297 13.24C94.843 12.3333 96.0164 11.64 97.3497 11.16C98.7097 10.68 100.136 10.44 101.63 10.44C103.15 10.44 104.576 10.68 105.91 11.16C107.243 11.64 108.416 12.3333 109.43 13.24C110.443 14.1467 111.243 15.2533 111.83 16.56C112.416 17.8667 112.71 19.3333 112.71 20.96ZM106.39 20.96C106.39 20.32 106.283 19.6933 106.07 19.08C105.856 18.4667 105.55 17.9333 105.15 17.48C104.75 17 104.256 16.6133 103.67 16.32C103.083 16.0267 102.403 15.88 101.63 15.88C100.856 15.88 100.176 16.0267 99.5897 16.32C99.003 16.6133 98.5097 17 98.1097 17.48C97.7364 17.9333 97.443 18.4667 97.2297 19.08C97.043 19.6933 96.9497 20.32 96.9497 20.96C96.9497 21.6 97.043 22.2267 97.2297 22.84C97.443 23.4533 97.7497 24.0133 98.1497 24.52C98.5497 25 99.043 25.3867 99.6297 25.68C100.216 25.9733 100.896 26.12 101.67 26.12C102.443 26.12 103.123 25.9733 103.71 25.68C104.296 25.3867 104.79 25 105.19 24.52C105.59 24.0133 105.883 23.4533 106.07 22.84C106.283 22.2267 106.39 21.6 106.39 20.96ZM140.703 31V20.12C140.703 19.56 140.663 19.0267 140.583 18.52C140.503 17.9867 140.356 17.5333 140.143 17.16C139.93 16.7867 139.636 16.4933 139.263 16.28C138.916 16.04 138.45 15.92 137.863 15.92C137.303 15.92 136.81 16.04 136.383 16.28C135.983 16.52 135.636 16.84 135.343 17.24C135.076 17.64 134.876 18.1067 134.743 18.64C134.61 19.1467 134.543 19.68 134.543 20.24V31H127.983V19.64C127.983 18.4933 127.756 17.5867 127.303 16.92C126.85 16.2533 126.13 15.92 125.143 15.92C124.103 15.92 123.29 16.3333 122.703 17.16C122.143 17.9867 121.863 19 121.863 20.2V31H115.263V11.08H121.623V13.84H121.703C121.943 13.4133 122.236 13 122.583 12.6C122.956 12.2 123.396 11.8533 123.903 11.56C124.41 11.24 124.97 10.9867 125.583 10.8C126.223 10.6133 126.916 10.52 127.663 10.52C129.103 10.52 130.316 10.8133 131.303 11.4C132.316 11.9867 133.103 12.8267 133.663 13.92C134.33 12.88 135.183 12.0533 136.223 11.44C137.263 10.8267 138.53 10.52 140.023 10.52C141.383 10.52 142.516 10.7733 143.423 11.28C144.356 11.76 145.103 12.4 145.663 13.2C146.223 13.9733 146.623 14.8533 146.863 15.84C147.13 16.8 147.263 17.7467 147.263 18.68V31H140.703ZM164.336 18.76C164.336 17.72 164.003 16.8267 163.336 16.08C162.696 15.3333 161.723 14.96 160.416 14.96C159.776 14.96 159.19 15.0667 158.656 15.28C158.123 15.4667 157.656 15.7333 157.256 16.08C156.856 16.4267 156.536 16.84 156.296 17.32C156.056 17.7733 155.923 18.2533 155.896 18.76H164.336ZM170.376 21.28C170.376 21.5467 170.376 21.8133 170.376 22.08C170.376 22.3467 170.363 22.6 170.336 22.84H155.896C155.95 23.4 156.11 23.9067 156.376 24.36C156.67 24.8133 157.03 25.2133 157.456 25.56C157.91 25.88 158.403 26.1333 158.936 26.32C159.496 26.5067 160.07 26.6 160.656 26.6C161.696 26.6 162.576 26.4133 163.296 26.04C164.016 25.64 164.603 25.1333 165.056 24.52L169.616 27.4C168.683 28.76 167.443 29.8133 165.896 30.56C164.376 31.28 162.603 31.64 160.576 31.64C159.083 31.64 157.67 31.4133 156.336 30.96C155.003 30.48 153.83 29.8 152.816 28.92C151.83 28.0133 151.043 26.9067 150.456 25.6C149.896 24.2933 149.616 22.8 149.616 21.12C149.616 19.4933 149.896 18.0267 150.456 16.72C151.016 15.3867 151.776 14.2667 152.736 13.36C153.696 12.4267 154.83 11.7067 156.136 11.2C157.443 10.6933 158.856 10.44 160.376 10.44C161.843 10.44 163.19 10.6933 164.416 11.2C165.643 11.68 166.696 12.3867 167.576 13.32C168.456 14.2533 169.136 15.3867 169.616 16.72C170.123 18.0533 170.376 19.5733 170.376 21.28ZM174.044 21.52V2.68H180.764V21.52H174.044ZM181.324 27.6C181.324 28.1333 181.218 28.64 181.004 29.12C180.818 29.5733 180.538 29.9733 180.164 30.32C179.818 30.64 179.404 30.8933 178.924 31.08C178.444 31.2933 177.938 31.4 177.404 31.4C176.871 31.4 176.364 31.3067 175.884 31.12C175.431 30.9333 175.031 30.6667 174.684 30.32C174.338 29.9733 174.058 29.5733 173.844 29.12C173.631 28.6667 173.524 28.1733 173.524 27.64C173.524 27.1333 173.618 26.6533 173.804 26.2C174.018 25.72 174.298 25.3067 174.644 24.96C174.991 24.6133 175.404 24.3467 175.884 24.16C176.364 23.9467 176.871 23.84 177.404 23.84C177.938 23.84 178.444 23.9467 178.924 24.16C179.404 24.3467 179.818 24.6133 180.164 24.96C180.538 25.28 180.818 25.68 181.004 26.16C181.218 26.6133 181.324 27.0933 181.324 27.6Z" fill="#213F7D"/>
</svg>
